<svg version="1.2" xmlns="http://www.w3.org/2000/svg" viewBox="0 0 520 520" width="520" height="520">
	<title>Novo Projeto</title>
	<defs>
		<clipPath clipPathUnits="userSpaceOnUse" id="cp1">
			<path d="m0 0h520v520h-520z"/>
		</clipPath>
	</defs>
	<style>
		.s0 { fill: #000000 } 
	</style>
	<g id="Prancheta 1" clip-path="url(#cp1)">
		<path class="s0" d="m244.6 76.1q-3.6 0-7.2 0.1-3.6 0.2-7.2 0.5-3.6 0.3-7.2 0.8-3.6 0.5-7.2 1.1 2-0.2 4-0.4 2-0.2 4-0.3 2.1-0.1 4.1-0.1 2-0.1 4-0.1c80.2 0 145.1 64.9 145.1 145 0 80.1-64.9 145.1-145.1 145.1-80.2 0-145.2-65-145.2-145.1q0-9.7 1.3-19.4 1.3-9.6 3.9-19 2.6-9.4 6.4-18.3 3.8-9 8.8-17.4c-4.7 6.9-8.9 14.1-12.5 21.6-3.6 7.5-6.7 15.2-9.1 23.2-2.5 7.9-4.4 16-5.6 24.3-1.2 8.2-1.8 16.5-1.8 24.8 0 91.9 74.5 166.5 166.5 166.5 92 0 166.6-74.6 166.6-166.5 0-91.9-74.6-166.4-166.6-166.4z"/>
		<path class="s0" d="m151.3 137.2c-15.1 0-27.3-12.2-27.3-27.3 0-15.1 12.2-27.3 27.3-27.3 15.1 0 27.3 12.2 27.3 27.3 0 15.1-12.2 27.3-27.3 27.3z"/>
		<path class="s0" d="m252.6 211.1l-197.6 142.2q-0.8 0.6-1.7 1-0.8 0.4-1.8 0.7-0.9 0.3-1.9 0.5-1 0.1-1.9 0.1l-18.7-0.5q5.6 5.2 11 10.5 5.4 5.4 10.6 10.9 5.3 5.5 10.3 11.2 5.1 5.7 9.9 11.6l-0.3-16.1q0-0.9 0.2-1.8 0.2-0.9 0.6-1.8 0.3-0.9 0.9-1.6 0.5-0.8 1.2-1.4z"/>
		<path class="s0" d="m277.7 157.6c17 12.7 30.9 26.2 45.3 42.5l-0.3-17.8q0-0.9 0.2-1.8 0.2-0.9 0.5-1.7 0.4-0.9 0.9-1.6 0.5-0.8 1.2-1.4l164.5-155-186.6 133.8q-0.8 0.5-1.6 0.9-0.8 0.5-1.7 0.7-0.9 0.3-1.9 0.5-0.9 0.1-1.8 0.1z"/>
		<path class="s0" d="m469.2 429.4l-125.9-145.2q-0.7-0.8-1.3-1.7-0.5-0.9-0.9-1.9-0.3-1-0.5-2-0.2-1-0.2-2v-16.4c-12.2 12.3-27.4 24.5-44.1 36.6l18.4-0.1q1.1 0 2.2 0.2 1.1 0.2 2.2 0.6 1.1 0.4 2 1 1 0.6 1.8 1.3z"/>
		<path class="s0" d="m245.3 499.6l-0.7-157.2q0-0.8 0.2-1.6 0.2-0.7 0.5-1.5 0.4-0.7 0.9-1.3 0.4-0.6 1.1-1.1l10.3-9.3c-18.5 2.3-37.6 2.2-57.2 0l10.2 12.4q0.9 1 1.7 2.2 0.7 1.1 1.3 2.3 0.6 1.2 1.1 2.5 0.4 1.2 0.7 2.5z"/>
	</g>
</svg>