<svg version="1.2" xmlns="http://www.w3.org/2000/svg" viewBox="0 0 520 520" width="520" height="520">
	<title>Novo Projeto</title>
	<defs>
		<clipPath clipPathUnits="userSpaceOnUse" id="cp1">
			<path d="m0 0h520v520h-520z"/>
		</clipPath>
	</defs>
	<style>
		.s0 { fill: #000000 } 
	</style>
	<g id="Prancheta 1" clip-path="url(#cp1)">
		<path class="s0" d="m119.7 159.4l-55.3 69 18.9-7.9q1.5-0.6 3.1-0.8 1.6-0.1 3.1 0.2 1.6 0.3 3 1.1 1.4 0.8 2.5 1.9l159.4 168-125.9-203.8q-1.5-2.5-2.8-5.2-1.3-2.6-2.3-5.4-1-2.8-1.7-5.7-0.7-2.8-1.2-5.7zm219.3 154.6c0 16.3-13.6 29.5-30.4 29.5-16.7 0-30.3-13.2-30.3-29.5 0-16.3 13.6-29.5 30.4-29.5 16.7 0 30.3 13.2 30.3 29.5zm-74-186.5c-91.8 3.3-168.4 80.5-178.7 171.3l55.5 39.1c-7.1-45.3 34.6-125.2 124.6-122.1 68.6 2.3 116.5 50.4 122.7 118.8 10.2 112.5-75.4 160.2-133.4 165.2 130.3-0.1 198.7-105.6 200.7-185.6 2.7-108.5-85.2-190.5-191.4-186.7zm-18.5 169.3l-49.8-237.2c-1.4-6.4-0.5-8 2.5-13.8l13-25.5-81.2 39.5 6.5 6.4q2 1.9 3.8 4.1 1.8 2.1 3.3 4.4 1.6 2.3 3 4.7 1.4 2.4 2.5 4.9z"/>
	</g>
</svg>