<svg version="1.2" xmlns="http://www.w3.org/2000/svg" viewBox="0 0 520 520" width="520" height="520">
	<title>Novo Projeto</title>
	<defs>
		<clipPath clipPathUnits="userSpaceOnUse" id="cp1">
			<path d="m0 0h520v520h-520z"/>
		</clipPath>
	</defs>
	<style>
		.s0 { fill: #000000 } 
	</style>
	<g id="Prancheta 1" clip-path="url(#cp1)">
		<path class="s0" d="m267 32.5q-3.8 0-7.5 0.2-3.8 0.1-7.5 0.4-3.7 0.3-7.5 0.7-3.7 0.4-7.4 1c1.6-0.1 3.3-0.1 5-0.1 88.9 0 160.9 72 160.9 160.9 0 88.9-72 160.9-160.9 160.9-88.9 0-160.9-72-160.9-160.9q0-6 0.4-12 0.4-6 1.3-11.9 0.9-6 2.3-11.8 1.3-5.9 3-11.7-4.2 9.5-7.4 19.3-3.2 9.8-5.4 19.9-2.2 10.1-3.2 20.4-1.1 10.3-1.1 20.6c0 108.1 87.7 195.9 195.9 195.9 108.2 0 195.8-87.8 195.8-195.9 0-108.1-87.6-195.9-195.8-195.9z"/>
		<path class="s0" d="m332.9 236.3c-18.9 0-34.2-15.2-34.2-34.1 0-18.9 15.3-34.2 34.2-34.2 18.9 0 34.1 15.3 34.1 34.2 0 18.9-15.2 34.1-34.1 34.1z"/>
		<path class="s0" d="m251 499.7q12-2.2 24-3.9 12.1-1.7 24.2-2.8 12.1-1.2 24.2-1.8 12.2-0.6 24.3-0.6l-14.8-11.8q-1.6-1.5-3.1-3.1-1.4-1.6-2.8-3.3-1.3-1.7-2.5-3.5-1.2-1.8-2.3-3.7l-264.9-444.9 219.8 454.9q0.5 0.9 0.6 1.9 0.1 1-0.2 2-0.3 0.9-0.9 1.7-0.6 0.9-1.4 1.4z"/>
		<path class="s0" d="m427.9 418.2l-60.7 48.7q-0.6 0.5-1.4 0.6-0.7 0.1-1.4-0.1-0.8-0.2-1.3-0.8-0.5-0.5-0.7-1.3l-1.4-5.6q-0.4-1.2-0.4-2.4 0-1.3 0.3-2.5 0.2-1.2 0.8-2.3 0.5-1.1 1.3-2.1l6.3-7.4-213.6-338.5 247.3 310.7q0.7 0.9 1.7 1.7 1 0.8 2.1 1.3 1.2 0.5 2.4 0.7 1.2 0.2 2.5 0.2z"/>
	</g>
</svg>