<svg version="1.2" xmlns="http://www.w3.org/2000/svg" viewBox="0 0 520 520" width="520" height="520">
	<title>Novo Projeto</title>
	<defs>
		<clipPath clipPathUnits="userSpaceOnUse" id="cp1">
			<path d="m0 0h520v520h-520z"/>
		</clipPath>
	</defs>
	<style>
		.s0 { fill: #000000 } 
	</style>
	<g id="Prancheta 1" clip-path="url(#cp1)">
		<path class="s0" d="m258 29.5c53.9 13.1 94.5 68.8 94.5 135.5 0 76.4-53.2 138.3-118.7 138.3-65.5 0-118.7-61.9-118.7-138.3q0-7.8 0.8-15.6 0.7-7.8 2.3-15.5 1.5-7.7 3.8-15.2 2.3-7.5 5.3-14.7l-20.4-18.9c-6.2 7.3-11.8 15.2-16.7 23.5-4.8 8.3-8.9 17.1-12.3 26.1-3.3 9-5.8 18.4-7.5 27.8-1.7 9.5-2.5 19.1-2.5 28.8 0 90.5 73.3 163.9 163.7 163.9 90.5 0 163.8-73.4 163.8-163.9 0-81.5-59.5-149.1-137.4-161.8zm185.4 469.9l-333.8-418.1-24.9 37.6 358.7 380.5zm8.5-76.4l-138.7-202.1q-0.5-0.7-0.8-1.4-0.3-0.8-0.3-1.7-0.1-0.8 0-1.7 0.2-0.8 0.6-1.6l5.2-11-47.3 37.4 10-2.5q0.9-0.3 1.9-0.3 1 0.1 1.9 0.3 0.9 0.3 1.7 0.9 0.9 0.5 1.5 1.2zm-274.5-347.7c-15.2 0-27.6-12.3-27.6-27.6 0-15.3 12.4-27.6 27.6-27.6 15.3 0 27.6 12.3 27.6 27.6 0 15.3-12.3 27.6-27.6 27.6z"/>
	</g>
</svg>