<svg version="1.2" xmlns="http://www.w3.org/2000/svg" viewBox="0 0 520 520" width="520" height="520">
	<title>Novo Projeto</title>
	<defs>
		<clipPath clipPathUnits="userSpaceOnUse" id="cp1">
			<path d="m0 0h520v520h-520z"/>
		</clipPath>
	</defs>
	<style>
		.s0 { fill: #000000 } 
	</style>
	<g id="Prancheta 1" clip-path="url(#cp1)">
		<path class="s0" d="m309.5 438.6c-102.8 0-186.2-70.2-186.2-156.8 0-49.4 27.1-93.4 69.5-122.1l19.2-62h-69.5c-14.2 10.2-27.1 22.1-38.5 35.4-11.4 13.3-21.2 27.9-29.1 43.5-8 15.5-14.1 32-18.2 49-4.1 17-6.1 34.5-6.1 52 0 122.6 99.4 222 222.1 222 110.4 0 201.9-80.4 219.2-185.8-17.5 71.3-92.5 124.8-182.4 124.8z"/>
		<path class="s0" d="m374.6 390.2c-20.8 0-37.7-16.9-37.7-37.7 0-20.8 16.9-37.7 37.7-37.7 20.9 0 37.7 16.9 37.7 37.7 0 20.8-16.8 37.7-37.7 37.7z"/>
		<path class="s0" d="m314 327.4l-1.6-2.2-210.2-273.3c3-8.7 2.9-19.3 0-31.8l-74.5 70.9 17.9 0.7q1.2 0 2.4 0.3 1.1 0.2 2.2 0.7 1.1 0.5 2.1 1.2 0.9 0.6 1.8 1.5l146.8 147.6c43.6 30 85.7 59.5 113.1 84.4z"/>
	</g>
</svg>