<svg version="1.2" xmlns="http://www.w3.org/2000/svg" viewBox="0 0 520 520" width="520" height="520">
	<title>Novo Projeto</title>
	<defs>
		<clipPath clipPathUnits="userSpaceOnUse" id="cp1">
			<path d="m0 0h520v520h-520z"/>
		</clipPath>
	</defs>
	<style>
		.s0 { fill: #000000 } 
	</style>
	<g id="Prancheta 1" clip-path="url(#cp1)">
		<path class="s0" d="m263.5 437.1l22.9-316.2q0.1-1.4 0.3-2.7 0.2-1.4 0.5-2.7 0.4-1.3 0.8-2.6 0.5-1.3 1-2.6l5.3-11.8c-21.9 6.7-52.1 7.7-84.7 7l25.3 12.8c5.3 2.7 8.8 2.7 9.2 8.6zm23-388.1c0 11.4-6.9 21.6-17.4 26-10.5 4.3-22.6 1.9-30.6-6.1-8-8-10.4-20.1-6.1-30.6 4.4-10.5 14.6-17.4 26-17.4 3.7 0 7.3 0.8 10.7 2.2 3.4 1.4 6.5 3.5 9.1 6.1 2.6 2.6 4.7 5.7 6.1 9.1 1.4 3.4 2.2 7 2.2 10.7zm-26.2 95.5c-101.8 0-184.3 79.9-184.3 178.4 0 89.3 67.7 163.2 156.1 176.4-57.8-15.1-101-75-101-146.7 0-83 57.9-150.4 129.4-150.4 71.5 0 129.5 67.4 129.5 150.4 0 71.3-42.7 130.9-100.1 146.4 87.7-13.7 154.7-87.3 154.7-176.1 0-98.6-82.5-178.4-184.3-178.4zm0 89.3c-57.8 0-104.6 45.8-104.6 102.2 0 45.2 30 83.5 71.6 97-23.4-12.7-39.5-38.4-39.5-68.1 0-42.3 32.4-76.5 72.5-76.5 40 0 72.5 34.2 72.5 76.5 0 29.7-16.1 55.4-39.6 68.1 41.6-13.5 71.7-51.8 71.7-97 0-56.4-46.9-102.2-104.6-102.2z"/>
	</g>
</svg>