<svg version="1.2" xmlns="http://www.w3.org/2000/svg" viewBox="0 0 520 520" width="520" height="520">
	<title>Novo Projeto</title>
	<defs>
		<clipPath clipPathUnits="userSpaceOnUse" id="cp1">
			<path d="m0 0h520v520h-520z"/>
		</clipPath>
	</defs>
	<style>
		.s0 { fill: #000000 } 
	</style>
	<g id="Prancheta 1" clip-path="url(#cp1)">
		<path class="s0" d="m308.9 21l-79 18 20.1 10.1q1 0.5 1.9 1.2 0.9 0.7 1.6 1.5 0.7 0.9 1.3 1.9 0.5 1 0.8 2l60.6 196.4zm105.9 121.4c0.1 12.6-7.4 24-19 28.9-11.6 5-25 2.4-34-6.5-9-8.9-11.7-22.3-6.9-33.9 4.8-11.7 16.2-19.3 28.8-19.3 4 0 8.1 0.7 11.8 2.3 3.8 1.5 7.2 3.8 10.1 6.6 2.9 2.9 5.2 6.3 6.7 10 1.6 3.8 2.4 7.8 2.5 11.9zm-127.6 120.9l-78.1-198q-0.4-1.1-0.7-2.2-0.3-1.2-0.5-2.4-0.2-1.1-0.2-2.3-0.1-1.2 0-2.4l1.3-16.7-81.9 44.7 27 1.2q0.5 0 1.1 0.2 0.6 0.1 1.1 0.4 0.5 0.3 0.9 0.6 0.5 0.4 0.8 0.9zm2 181.4c-93.1-2.4-166.9-67.5-164.9-145.3 2-76.2 75.9-136.2 166.2-136.5v-58.1q-3.6-0.6-7.2-1-3.7-0.4-7.3-0.6-3.7-0.3-7.3-0.4-3.7-0.2-7.3-0.2c-110.1 0-199.4 88.9-199.4 198.7 0 109.7 89.3 198.6 199.3 198.6 99 0 181.1-72 196.7-166.3-16.1 65.3-86.1 113.3-168.8 111.1z"/>
	</g>
</svg>