<svg version="1.2" xmlns="http://www.w3.org/2000/svg" viewBox="0 0 520 520" width="520" height="520">
	<title>Novo Projeto</title>
	<defs>
		<clipPath clipPathUnits="userSpaceOnUse" id="cp1">
			<path d="m0 0h520v520h-520z"/>
		</clipPath>
	</defs>
	<style>
		.s0 { fill: #000000 } 
	</style>
	<g id="Prancheta 1" clip-path="url(#cp1)">
		<path class="s0" d="m249.4 82.6c-92.9 0-168.2 75.3-168.2 168.1 0 9.1 0.8 18.2 2.2 27.2 1.5 8.9 3.7 17.8 6.6 26.4 2.9 8.7 6.5 17 10.8 25.1 4.3 8 9.2 15.7 14.7 22.9q-5.9-8.5-10.5-17.9-4.6-9.4-7.7-19.3-3.1-10-4.7-20.3-1.5-10.3-1.5-20.7c0-76.8 62.9-138.9 140.5-138.9 77.6 0 140.5 62.1 140.5 138.9 0 76.7-62.9 138.9-140.5 138.9q-7.7 0-15.3-0.9-7.6-0.8-15.1-2.4-7.5-1.7-14.8-4.1-7.2-2.4-14.2-5.7 8.9 4.7 18.3 8.2 9.4 3.5 19.2 5.9 9.7 2.3 19.7 3.5 10 1.2 20 1.2c92.9 0 168.1-75.2 168.1-168 0-92.8-75.2-168.1-168.1-168.1z"/>
		<path class="s0" d="m233.9 284.7c-15.1 0-27.4-12.3-27.4-27.4 0-15.1 12.3-27.4 27.4-27.4 15.1 0 27.4 12.3 27.4 27.4 0 15.1-12.3 27.4-27.4 27.4z"/>
		<path class="s0" d="m368.8 57l-86.8 139.4c-8.5-10.2-20.3-13.3-29-15l88.4-139.3c1.1-2.3 1-3.2 0.4-5.4l-2.9-10.7 3.5-6.1c20.2 12.6 40.2 24.4 53.6 29.3l-19.2 3.2c-5.1 0.9-5.1 0.9-8 4.6z"/>
		<path class="s0" d="m152.9 33.9l15.2 13.3c3.4 3.4 8.1 10 9.3 14.6l35.5 133.4-6.1-157.8q-0.1-1.3 0-2.6 0.1-1.3 0.3-2.6 0.3-1.2 0.6-2.5 0.3-1.2 0.8-2.4l2-5.3z"/>
		<path class="s0" d="m299.3 262.5l156.4-60.5q0.8-0.4 1.5-0.9 0.8-0.5 1.4-1.2 0.6-0.6 1.1-1.3 0.5-0.8 0.9-1.6l6.9-12.1c-1.2 11.4 0.7 42.5 6.6 74.7l-24-24.1q-0.5-0.5-1.1-0.9-0.6-0.4-1.3-0.6-0.7-0.2-1.4-0.2-0.8-0.1-1.5 0.1z"/>
		<path class="s0" d="m44.9 499.1l125.6-193.7c8.5 8.8 17.9 16.7 28.8 22.9z"/>
	</g>
</svg>