<svg version="1.2" xmlns="http://www.w3.org/2000/svg" viewBox="0 0 520 520" width="520" height="520">
	<title>Novo Projeto</title>
	<defs>
		<clipPath clipPathUnits="userSpaceOnUse" id="cp1">
			<path d="m0 0h520v520h-520z"/>
		</clipPath>
	</defs>
	<style>
		.s0 { fill: #000000 } 
	</style>
	<g id="Prancheta 1" clip-path="url(#cp1)">
		<path class="s0" d="m445 182q1.8 5.2 3.2 10.5 1.3 5.2 2.2 10.6 0.9 5.4 1.4 10.8 0.4 5.5 0.4 10.9c0 72.8-59.4 131.9-132.7 131.9-73.3 0-132.7-59.1-132.7-131.9 0-72.8 59.4-131.8 132.7-131.8q5.9 0 11.7 0.5 5.9 0.5 11.6 1.5 5.8 1 11.5 2.6 5.6 1.5 11.2 3.5-7.5-3.4-15.4-5.9-7.8-2.6-15.8-4.3-8.1-1.7-16.2-2.6-8.2-0.8-16.4-0.8c-86 0-155.7 69.4-155.7 155 0 85.6 69.7 155 155.7 155 85.9 0 155.6-69.4 155.6-155q0-7.8-0.7-15.5-0.8-7.7-2.4-15.4-1.5-7.6-3.8-15-2.3-7.4-5.4-14.6z"/>
		<path class="s0" d="m302.8 257.1c-14.2 0-25.7-11.5-25.7-25.7 0-14.2 11.5-25.7 25.7-25.7 14.2 0 25.6 11.5 25.6 25.7 0 14.2-11.4 25.7-25.6 25.7z"/>
		<path class="s0" d="m338 158.5q5.6 4.4 10.9 9 5.3 4.7 10.3 9.7 5.1 4.9 9.8 10.1 4.8 5.3 9.2 10.8l-0.1-12.9q0-1.5 0.3-3 0.3-1.5 0.9-2.9 0.6-1.5 1.4-2.7 0.9-1.3 2-2.4l122.2-121-143.8 102.4q-0.9 0.6-1.9 1.1-0.9 0.5-1.9 0.8-1 0.4-2.1 0.5-1 0.2-2.1 0.2z"/>
		<path class="s0" d="m473.9 425.9l-59.8-121.4q-0.5-1.1-0.9-2.3-0.4-1.2-0.6-2.5-0.2-1.2-0.2-2.5 0.1-1.3 0.3-2.5l1.9-11.1c-12.6 12.1-26.1 22.7-40.9 30.6l11.4 2.7q1.4 0.3 2.8 0.9 1.4 0.6 2.7 1.4 1.2 0.8 2.3 1.8 1.1 1 2 2.2z"/>
		<path class="s0" d="m206.9 500l45.8-175.3q0.3-0.9 0.3-1.9 0.1-1-0.1-2-0.2-1-0.6-2-0.3-0.9-0.9-1.7l-8.8-12.8c17.9 10.9 34.9 18.8 50.8 22.7l-10.4 4.9q-1.4 0.6-2.7 1.5-1.3 0.9-2.3 2.1-1.1 1.1-2 2.4-0.8 1.3-1.5 2.7z"/>
		<path class="s0" d="m15.5 236l181.8 2.5q0.9 0.1 1.8-0.1 1-0.1 1.9-0.4 0.9-0.3 1.7-0.7 0.8-0.5 1.6-1l13.1-9.8c-3.1 15.4-2.8 31.6 0 48.2l-12.7-9.2q-0.8-0.6-1.6-1-0.9-0.5-1.8-0.9-0.9-0.3-1.9-0.6-0.9-0.3-1.9-0.4z"/>
		<path class="s0" d="m196.4 20.5l69.8 104q0.4 0.6 0.7 1.2 0.3 0.6 0.4 1.3 0.2 0.7 0.3 1.4 0 0.7 0 1.4l-1.7 16.9c11.6-12 26.2-22.1 43.2-30.7l-18.2-3.2q-0.8-0.2-1.6-0.4-0.7-0.3-1.5-0.6-0.7-0.4-1.3-0.9-0.6-0.5-1.2-1z"/>
	</g>
</svg>