<svg version="1.2" xmlns="http://www.w3.org/2000/svg" viewBox="0 0 520 520" width="520" height="520">
	<title>Novo Projeto</title>
	<defs>
		<clipPath clipPathUnits="userSpaceOnUse" id="cp1">
			<path d="m0 0h520v520h-520z"/>
		</clipPath>
	</defs>
	<style>
		.s0 { fill: #000000 } 
	</style>
	<g id="Prancheta 1" clip-path="url(#cp1)">
		<path class="s0" d="m289.3 76.9l-14.9 47.6c45.5 16.2 77.4 54 77.4 98 0 58.8-56.9 106.5-127 106.5-63.4 0-115.9-39.1-125.4-90 8.7 74.7 72.2 132.7 149.3 132.7 83 0 150.3-67.3 150.3-150.2 0-68.9-46.4-126.9-109.7-144.6z"/>
		<path class="s0" d="m231.8 251c7.8-27.8 14.4-54 17.4-75.2l82.8-137.2q0.5-0.9 0.8-1.8 0.4-1 0.5-2 0.1-1 0.1-2-0.1-1-0.3-2l-2.9-10.5 37.8 26.2-6.8 0.9q-0.9 0.1-1.7 0.4-0.8 0.3-1.5 0.7-0.7 0.5-1.3 1.1-0.6 0.6-1 1.3z"/>
		<path class="s0" d="m229.8 105.9c-14 0-25.3-11.3-25.3-25.3 0-14 11.3-25.3 25.3-25.3 14 0 25.3 11.3 25.3 25.3 0 14-11.3 25.3-25.3 25.3z"/>
		<path class="s0" d="m375.6 50.2l46.3 29.4-10-0.5q-0.8-0.1-1.6 0.1-0.9 0.2-1.6 0.6-0.7 0.4-1.3 1-0.6 0.6-1 1.4l-224.2 417.7c9.1-25.1 34.7-118.2 43.5-154.4l152.9-277.3q0.5-0.9 0.8-1.9 0.3-1 0.4-2.1 0.1-1-0.1-2.1-0.1-1-0.5-2z"/>
	</g>
</svg>