<svg version="1.2" xmlns="http://www.w3.org/2000/svg" viewBox="0 0 520 520" width="520" height="520">
	<title>Novo Projeto</title>
	<defs>
		<clipPath clipPathUnits="userSpaceOnUse" id="cp1">
			<path d="m0 0h520v520h-520z"/>
		</clipPath>
	</defs>
	<style>
		.s0 { fill: #000000 } 
	</style>
	<g id="Prancheta 1" clip-path="url(#cp1)">
		<path class="s0" d="m255.2 499.3c-81.6-5.3-146.3-88.3-146.3-189.9 0-105 74.7-190.2 160.1-190.2q0.9 0 1.8 0.1v-72.9c-1.5 0-3-0.2-4.4-0.2-122.4 0-227.2 101.5-227.2 226.7 0 123.3 96.2 223.5 216 226.6zm59-353.1c-92.1 0-166.8 74-166.8 165.2 0 84.5 64 154.1 146.6 164-63.1-10.3-107.6-67.5-102-131.3 5.6-63.7 59.4-112.3 123.3-111.4 64 0.9 116.3 51.1 120.1 115 3.7 63.9-42.5 119.8-105.9 128.2 84.9-7.7 151.5-78.4 151.5-164.5 0-91.2-74.7-165.2-166.8-165.2zm-34 279.5c-20.2 0-36.5-16.3-36.5-36.5 0-20.2 16.3-36.6 36.5-36.6 20.2 0 36.5 16.4 36.5 36.6 0 20.2-16.3 36.5-36.5 36.5zm100.5-38.1l-255-341.4q-0.6-0.8-1.1-1.7-0.5-0.9-0.8-1.9-0.4-0.9-0.6-2-0.2-1-0.2-2l-1.7-18.5-78.4 72.9 34.5-10.6c9.5-1.9 11-3.8 17.6 3.2z"/>
	</g>
</svg>