<svg version="1.2" xmlns="http://www.w3.org/2000/svg" viewBox="0 0 520 520" width="520" height="520">
	<title>Novo Projeto</title>
	<defs>
		<clipPath clipPathUnits="userSpaceOnUse" id="cp1">
			<path d="m0 0h520v520h-520z"/>
		</clipPath>
	</defs>
	<style>
		.s0 { fill: #000000 } 
	</style>
	<g id="Prancheta 1" clip-path="url(#cp1)">
		<path class="s0" d="m418.3 86.2q5.5 8.5 9.8 17.7 4.2 9.2 7.1 18.9 2.8 9.7 4.3 19.7 1.4 10 1.4 20.1c0 77.9-63.3 141.1-141.3 141.1-78 0-141.3-63.2-141.3-141.1 0-77.9 63.3-141.1 141.3-141.1q0.6 0 1.3 0-8.2-0.8-16.6-0.8c-93.8 0-169.9 75.9-169.9 169.7 0 93.7 76.1 169.7 169.9 169.7 93.8 0 169.9-76 169.9-169.7 0-9.4-0.8-18.7-2.3-28-1.5-9.2-3.8-18.3-6.9-27.1-3-8.9-6.8-17.5-11.3-25.7-4.4-8.2-9.6-16-15.4-23.4zm-53.4-9.7c-15.5 0-28-12.5-28-27.9 0-15.4 12.5-27.9 28-27.9 15.4 0 27.9 12.5 27.9 27.9 0 15.4-12.5 27.9-27.9 27.9zm-243.2 423.2l172.2-278.4q1.2-1.9 2.5-3.7 1.4-1.8 3-3.4 1.6-1.7 3.4-3.2 1.7-1.4 3.6-2.7l7-6.3c-20.1-3.9-35.2-11-59-23.3l8.3 16.2q0.7 1.4 1.1 2.8 0.4 1.5 0.4 3 0 1.6-0.3 3.1-0.4 1.4-1 2.8zm-57-32.6l182.4-314.1q0.7-1.2 1.5-2.3 0.8-1.1 1.7-2.2 0.9-1 1.9-1.9 1-1 2.1-1.8c6.2-4.8 14.4-9.6 19.6-11.6-14.8-0.5-57.2-23.2-64.7-28.5l6.8 16.9q0.7 1.9 1 3.8 0.4 2 0.3 3.9 0 2-0.5 3.9-0.4 2-1.3 3.8z"/>
	</g>
</svg>