<svg version="1.1" id="Layer_1" xmlns="http://www.w3.org/2000/svg" xmlns:xlink="http://www.w3.org/1999/xlink" x="0px" y="0px"
	 width="100%" viewBox="0 0 512 512" enable-background="new 0 0 512 512" xml:space="preserve">
<path fill="#010101" opacity="1.000000" stroke="none" 
	d="
M302.000000,513.000000 
	C201.357773,513.000000 101.215538,513.000000 1.036655,513.000000 
	C1.036655,342.399414 1.036655,171.798813 1.036655,1.099110 
	C171.558914,1.099110 342.117889,1.099110 512.838440,1.099110 
	C512.838440,171.666550 512.838440,342.333252 512.838440,513.000000 
	C442.798798,513.000000 372.649384,513.000000 302.000000,513.000000 
M24.309191,348.534851 
	C23.369698,348.420654 22.430206,348.306488 20.599989,348.084076 
	C30.800529,376.398407 29.298964,404.117004 19.513903,431.819641 
	C21.139048,432.281769 22.054035,432.631317 23.001205,432.797943 
	C37.088200,435.276489 51.188812,437.678589 65.268097,440.199860 
	C130.427979,451.868317 195.582565,463.566284 260.737793,475.260681 
	C266.102417,476.223572 267.848358,475.283478 267.896912,469.681000 
	C268.091766,447.193451 268.185638,424.699158 267.812500,402.215729 
	C267.687714,394.696228 263.875702,391.379517 256.459839,389.969666 
	C254.826172,389.659088 253.200562,389.304932 251.564209,389.009857 
	C207.534760,381.070068 163.515961,373.070587 119.470276,365.221924 
	C88.031815,359.619781 56.557053,354.221344 24.309191,348.534851 
M248.678238,40.552975 
	C246.488861,40.102772 244.256760,39.134014 242.119003,39.310207 
	C237.654816,39.678146 233.240356,40.650082 228.805603,41.374752 
	C184.465500,48.620235 140.123840,55.856323 95.786568,63.119083 
	C86.192307,64.690681 76.613777,66.358330 66.504684,68.070374 
	C67.402138,68.889870 67.715721,69.273598 68.112999,69.525131 
	C108.635063,95.181801 149.140686,120.864738 189.760162,146.366333 
	C191.743759,147.611664 194.836731,147.940857 197.230286,147.556915 
	C247.670517,139.465897 298.085175,131.215454 348.502655,122.982628 
	C356.078827,121.745476 363.643921,120.440262 372.458832,118.957100 
	C330.601105,92.449966 289.960083,66.713326 248.678238,40.552975 
M329.853455,326.311676 
	C384.489197,317.532837 439.124939,308.753998 493.023407,300.093597 
	C491.059082,287.401459 488.015533,275.296936 487.627899,263.107941 
	C487.239075,250.880798 489.498932,238.569427 490.602509,226.244446 
	C472.295563,229.157623 452.954407,232.200882 433.625122,235.317719 
	C374.521606,244.848099 315.424225,254.416473 256.319733,263.940704 
	C249.745560,265.000061 246.079498,268.809509 246.024994,275.784119 
	C245.876633,294.768646 245.886475,313.755310 245.982834,332.740356 
	C246.010559,338.204346 247.913971,339.599823 253.161163,338.754211 
	C278.444031,334.679901 303.726379,330.602448 329.853455,326.311676 
M339.853119,141.312164 
	C327.054871,143.394745 314.259583,145.495575 301.457855,147.556396 
	C265.181244,153.396240 228.904785,159.236984 192.620987,165.031845 
	C186.882965,165.948242 185.017944,167.647278 184.970734,173.447327 
	C184.846085,188.765854 184.923141,204.085907 184.870163,219.405182 
	C184.858582,222.755127 185.734268,223.991364 189.607834,223.359665 
	C244.586533,214.393997 299.597229,205.624878 354.596954,196.787903 
	C364.065460,195.266556 373.518799,193.650940 383.233612,192.036591 
	C376.010223,172.906647 374.560150,154.139954 382.115784,134.604156 
	C367.598083,136.904236 354.154327,139.034164 339.853119,141.312164 
M312.836945,354.337585 
	C300.490509,363.060059 288.144043,371.782501 275.522186,380.699554 
	C283.236694,389.298737 284.819702,399.455444 284.760712,410.190491 
	C284.677399,425.355316 284.808411,440.521362 284.872253,455.686798 
	C284.878113,457.074188 285.061066,458.460846 285.198578,460.355011 
	C286.419098,459.602600 287.118164,459.221466 287.764801,458.765930 
	C339.357086,422.419373 390.979034,386.114441 442.439087,349.581512 
	C445.143280,347.661713 447.624146,344.004913 448.182404,340.803406 
	C449.123901,335.403961 448.440582,329.721222 448.440582,324.125916 
	C448.018158,324.125916 447.678986,324.080475 447.355408,324.132324 
	C413.997559,329.479401 380.688812,335.163971 347.259583,340.018707 
	C334.589386,341.858704 322.998352,345.125763 312.836945,354.337585 
M225.607422,246.894257 
	C216.629578,240.413330 207.723816,234.412216 195.597397,238.922119 
	C186.328735,242.369202 178.333420,238.715225 170.387390,233.539169 
	C137.066223,211.833557 103.505539,190.495590 70.025673,169.033768 
	C68.572456,168.102173 67.051125,167.276840 65.001778,166.073257 
	C65.001778,181.947220 65.146492,196.926010 64.936569,211.899811 
	C64.841331,218.693405 67.192612,223.304977 73.183014,227.066467 
	C123.490570,258.655548 173.627945,290.515656 223.823151,322.283752 
	C225.318192,323.229950 226.885757,324.061493 228.923462,325.237305 
	C229.028320,323.048584 229.164474,321.451569 229.171936,319.853973 
	C229.231018,307.198547 229.305389,294.542999 229.294952,281.887543 
	C229.286804,271.995544 229.410782,262.172882 237.590454,254.555069 
	C233.498505,251.926117 229.865936,249.592300 225.607422,246.894257 
M72.460861,339.999420 
	C75.405754,340.531586 78.350975,341.061951 81.295486,341.596222 
	C138.724472,352.016296 196.148743,362.462769 253.601761,372.748718 
	C255.602097,373.106842 258.265015,372.424896 259.979156,371.274323 
	C268.818542,365.341248 277.456818,359.107971 286.141327,352.945679 
	C287.125305,352.247498 287.958984,351.337555 289.898132,349.595123 
	C276.847412,351.568054 265.159302,353.087311 253.576508,355.187469 
	C247.521591,356.285339 242.551117,354.753998 237.582718,351.559540 
	C197.849838,326.012970 158.041641,300.583466 118.341637,274.986115 
	C115.502350,273.155426 113.720947,273.207886 110.979980,275.159210 
	C85.496529,293.301361 59.889637,311.270142 34.331287,329.307220 
	C33.218727,330.092346 32.229851,331.052765 30.654068,332.376007 
	C44.865330,334.987915 58.234077,337.445007 72.460861,339.999420 
M158.923111,146.576721 
	C120.175682,122.043045 81.428253,97.509369 42.704464,72.990654 
	C38.588783,76.688133 36.829922,80.721893 36.867916,85.725708 
	C36.958927,97.712509 36.993725,109.702492 36.804642,121.687302 
	C36.727905,126.551140 38.621994,129.642288 42.758369,132.244812 
	C83.037590,157.587616 123.215378,183.091629 163.431046,208.535507 
	C164.761093,209.377029 166.186386,210.067978 168.199509,211.177597 
	C168.199509,200.391678 168.333344,190.418640 168.158569,180.451019 
	C168.009949,171.974960 168.795166,163.816559 174.529922,156.481354 
	C169.312454,153.172424 164.422928,150.071472 158.923111,146.576721 
M323.025970,218.572922 
	C293.896973,223.265518 264.767944,227.958130 234.319916,232.863220 
	C242.153671,237.802551 248.703918,242.027588 255.376984,246.048889 
	C256.522156,246.738968 258.247314,246.932602 259.608246,246.724854 
	C270.293579,245.093704 280.956451,243.315323 291.624329,241.570465 
	C337.587280,234.052658 383.549194,226.528366 429.512329,219.011581 
	C446.514282,216.231110 463.518555,213.464798 482.100464,210.434570 
	C452.089294,191.430054 423.313690,173.207962 393.600708,154.392288 
	C393.600708,157.954208 393.475922,160.428818 393.622345,162.887283 
	C394.253082,173.478119 396.961517,183.518036 401.668884,193.040039 
	C405.228638,200.240662 402.554871,205.712845 394.826233,206.967957 
	C371.181610,210.807785 347.524353,214.569824 323.025970,218.572922 
z"/>
<path fill="#E3DBC8" opacity="1.000000" stroke="none" 
	d="
M24.703840,348.633423 
	C56.557053,354.221344 88.031815,359.619781 119.470276,365.221924 
	C163.515961,373.070587 207.534760,381.070068 251.564209,389.009857 
	C253.200562,389.304932 254.826172,389.659088 256.459839,389.969666 
	C263.875702,391.379517 267.687714,394.696228 267.812500,402.215729 
	C268.185638,424.699158 268.091766,447.193451 267.896912,469.681000 
	C267.848358,475.283478 266.102417,476.223572 260.737793,475.260681 
	C195.582565,463.566284 130.427979,451.868317 65.268097,440.199860 
	C51.188812,437.678589 37.088200,435.276489 23.001205,432.797943 
	C22.054035,432.631317 21.139048,432.281769 19.513903,431.819641 
	C29.298964,404.117004 30.800529,376.398407 20.599989,348.084076 
	C22.430206,348.306488 23.369698,348.420654 24.703840,348.633423 
z"/>
<path fill="#006AB2" opacity="1.000000" stroke="none" 
	d="
M248.998642,40.764824 
	C289.960083,66.713326 330.601105,92.449966 372.458832,118.957100 
	C363.643921,120.440262 356.078827,121.745476 348.502655,122.982628 
	C298.085175,131.215454 247.670517,139.465897 197.230286,147.556915 
	C194.836731,147.940857 191.743759,147.611664 189.760162,146.366333 
	C149.140686,120.864738 108.635063,95.181801 68.112999,69.525131 
	C67.715721,69.273598 67.402138,68.889870 66.504684,68.070374 
	C76.613777,66.358330 86.192307,64.690681 95.786568,63.119083 
	C140.123840,55.856323 184.465500,48.620235 228.805603,41.374752 
	C233.240356,40.650082 237.654816,39.678146 242.119003,39.310207 
	C244.256760,39.134014 246.488861,40.102772 248.998642,40.764824 
z"/>
<path fill="#E3DBC8" opacity="1.000000" stroke="none" 
	d="
M329.431183,326.418884 
	C303.726379,330.602448 278.444031,334.679901 253.161163,338.754211 
	C247.913971,339.599823 246.010559,338.204346 245.982834,332.740356 
	C245.886475,313.755310 245.876633,294.768646 246.024994,275.784119 
	C246.079498,268.809509 249.745560,265.000061 256.319733,263.940704 
	C315.424225,254.416473 374.521606,244.848099 433.625122,235.317719 
	C452.954407,232.200882 472.295563,229.157623 490.602509,226.244446 
	C489.498932,238.569427 487.239075,250.880798 487.627899,263.107941 
	C488.015533,275.296936 491.059082,287.401459 493.023407,300.093597 
	C439.124939,308.753998 384.489197,317.532837 329.431183,326.418884 
z"/>
<path fill="#E3DBC8" opacity="1.000000" stroke="none" 
	d="
M340.281830,141.238129 
	C354.154327,139.034164 367.598083,136.904236 382.115784,134.604156 
	C374.560150,154.139954 376.010223,172.906647 383.233612,192.036591 
	C373.518799,193.650940 364.065460,195.266556 354.596954,196.787903 
	C299.597229,205.624878 244.586533,214.393997 189.607834,223.359665 
	C185.734268,223.991364 184.858582,222.755127 184.870163,219.405182 
	C184.923141,204.085907 184.846085,188.765854 184.970734,173.447327 
	C185.017944,167.647278 186.882965,165.948242 192.620987,165.031845 
	C228.904785,159.236984 265.181244,153.396240 301.457855,147.556396 
	C314.259583,145.495575 327.054871,143.394745 340.281830,141.238129 
z"/>
<path fill="#FAAB0F" opacity="1.000000" stroke="none" 
	d="
M313.136230,354.140503 
	C322.998352,345.125763 334.589386,341.858704 347.259583,340.018707 
	C380.688812,335.163971 413.997559,329.479401 447.355408,324.132324 
	C447.678986,324.080475 448.018158,324.125916 448.440582,324.125916 
	C448.440582,329.721222 449.123901,335.403961 448.182404,340.803406 
	C447.624146,344.004913 445.143280,347.661713 442.439087,349.581512 
	C390.979034,386.114441 339.357086,422.419373 287.764801,458.765930 
	C287.118164,459.221466 286.419098,459.602600 285.198578,460.355011 
	C285.061066,458.460846 284.878113,457.074188 284.872253,455.686798 
	C284.808411,440.521362 284.677399,425.355316 284.760712,410.190491 
	C284.819702,399.455444 283.236694,389.298737 275.522186,380.699554 
	C288.144043,371.782501 300.490509,363.060059 313.136230,354.140503 
z"/>
<path fill="#E53431" opacity="1.000000" stroke="none" 
	d="
M225.920410,247.076385 
	C229.865936,249.592300 233.498505,251.926117 237.590454,254.555069 
	C229.410782,262.172882 229.286804,271.995544 229.294952,281.887543 
	C229.305389,294.542999 229.231018,307.198547 229.171936,319.853973 
	C229.164474,321.451569 229.028320,323.048584 228.923462,325.237305 
	C226.885757,324.061493 225.318192,323.229950 223.823151,322.283752 
	C173.627945,290.515656 123.490570,258.655548 73.183014,227.066467 
	C67.192612,223.304977 64.841331,218.693405 64.936569,211.899811 
	C65.146492,196.926010 65.001778,181.947220 65.001778,166.073257 
	C67.051125,167.276840 68.572456,168.102173 70.025673,169.033768 
	C103.505539,190.495590 137.066223,211.833557 170.387390,233.539169 
	C178.333420,238.715225 186.328735,242.369202 195.597397,238.922119 
	C207.723816,234.412216 216.629578,240.413330 225.920410,247.076385 
z"/>
<path fill="#F2D076" opacity="1.000000" stroke="none" 
	d="
M72.031845,339.950745 
	C58.234077,337.445007 44.865330,334.987915 30.654068,332.376007 
	C32.229851,331.052765 33.218727,330.092346 34.331287,329.307220 
	C59.889637,311.270142 85.496529,293.301361 110.979980,275.159210 
	C113.720947,273.207886 115.502350,273.155426 118.341637,274.986115 
	C158.041641,300.583466 197.849838,326.012970 237.582718,351.559540 
	C242.551117,354.753998 247.521591,356.285339 253.576508,355.187469 
	C265.159302,353.087311 276.847412,351.568054 289.898132,349.595123 
	C287.958984,351.337555 287.125305,352.247498 286.141327,352.945679 
	C277.456818,359.107971 268.818542,365.341248 259.979156,371.274323 
	C258.265015,372.424896 255.602097,373.106842 253.601761,372.748718 
	C196.148743,362.462769 138.724472,352.016296 81.295486,341.596222 
	C78.350975,341.061951 75.405754,340.531586 72.031845,339.950745 
z"/>
<path fill="#0069B2" opacity="1.000000" stroke="none" 
	d="
M159.228271,146.773621 
	C164.422928,150.071472 169.312454,153.172424 174.529922,156.481354 
	C168.795166,163.816559 168.009949,171.974960 168.158569,180.451019 
	C168.333344,190.418640 168.199509,200.391678 168.199509,211.177597 
	C166.186386,210.067978 164.761093,209.377029 163.431046,208.535507 
	C123.215378,183.091629 83.037590,157.587616 42.758369,132.244812 
	C38.621994,129.642288 36.727905,126.551140 36.804642,121.687302 
	C36.993725,109.702492 36.958927,97.712509 36.867916,85.725708 
	C36.829922,80.721893 38.588783,76.688133 42.704464,72.990654 
	C81.428253,97.509369 120.175682,122.043045 159.228271,146.773621 
z"/>
<path fill="#DA6E6E" opacity="1.000000" stroke="none" 
	d="
M323.448975,218.467529 
	C347.524353,214.569824 371.181610,210.807785 394.826233,206.967957 
	C402.554871,205.712845 405.228638,200.240662 401.668884,193.040039 
	C396.961517,183.518036 394.253082,173.478119 393.622345,162.887283 
	C393.475922,160.428818 393.600708,157.954208 393.600708,154.392288 
	C423.313690,173.207962 452.089294,191.430054 482.100464,210.434570 
	C463.518555,213.464798 446.514282,216.231110 429.512329,219.011581 
	C383.549194,226.528366 337.587280,234.052658 291.624329,241.570465 
	C280.956451,243.315323 270.293579,245.093704 259.608246,246.724854 
	C258.247314,246.932602 256.522156,246.738968 255.376984,246.048889 
	C248.703918,242.027588 242.153671,237.802551 234.319916,232.863220 
	C264.767944,227.958130 293.896973,223.265518 323.448975,218.467529 
z"/>
</svg>