<svg version="1.1" id="Layer_1" xmlns="http://www.w3.org/2000/svg" xmlns:xlink="http://www.w3.org/1999/xlink" x="0px" y="0px"
	 width="100%" viewBox="0 0 3000 3000" enable-background="new 0 0 3000 3000" xml:space="preserve">
<path fill="#000000" opacity="1.000000" stroke="none" 
	d="
M1662.000000,3002.000000 
	C1108.000122,3002.000000 555.000183,3002.000000 2.000223,3002.000000 
	C2.000148,2002.000244 2.000148,1002.000549 2.000074,2.000625 
	C1001.999512,2.000417 2001.999023,2.000417 3001.999023,2.000208 
	C3001.999268,1001.999329 3001.999268,2001.998657 3001.999512,3001.999023 
	C2555.666748,3002.000000 2109.333252,3002.000000 1662.000000,3002.000000 
M2349.919189,1783.000000 
	C2349.919922,1359.032593 2349.934570,935.065125 2349.836914,511.097687 
	C2349.834473,501.498810 2349.453613,491.733124 2347.700195,482.334320 
	C2343.304932,458.777496 2333.422363,446.333130 2308.317139,442.416443 
	C2296.556885,440.581787 2284.477783,440.242401 2272.541992,440.226715 
	C2258.938965,440.208801 2245.339844,441.605621 2231.729248,441.848724 
	C2212.736328,442.187958 2193.734375,442.073792 2174.736328,442.074341 
	C1847.426392,442.083862 1520.115967,442.363953 1192.806641,441.886444 
	C1108.878540,441.763977 1024.918335,444.174408 941.003235,440.220459 
	C932.446777,439.817322 923.804016,441.350281 915.196228,441.907898 
	C904.596069,442.594574 893.991089,443.207947 883.387451,443.839874 
	C855.994263,445.472473 830.477356,454.066803 806.229004,466.132721 
	C778.032349,480.163391 753.552124,499.151154 732.031982,522.480530 
	C700.328308,556.849670 679.707275,596.761536 667.649475,641.547241 
	C658.405396,675.881958 657.795410,711.212585 656.384277,746.318176 
	C655.411316,770.523987 657.835266,794.845032 657.840576,819.114746 
	C657.946045,1300.080444 657.934326,1781.046021 657.875977,2262.011719 
	C657.873169,2285.353271 659.598877,2308.516113 664.145935,2331.384033 
	C670.367798,2362.675537 681.375183,2392.069092 699.153442,2418.864014 
	C715.327454,2443.240479 735.155518,2464.077881 757.519287,2482.747314 
	C781.732544,2502.960693 809.262268,2516.414795 839.675537,2524.331787 
	C868.873779,2531.932129 898.876282,2533.606934 928.657288,2533.646484 
	C1255.966675,2534.081787 1583.277344,2534.237305 1910.586548,2533.760254 
	C2038.514526,2533.573730 2166.465088,2536.359863 2294.368408,2531.914062 
	C2304.567627,2531.559570 2314.949463,2529.895996 2324.792725,2527.190430 
	C2347.132080,2521.050781 2350.605469,2509.471436 2347.025391,2488.621338 
	C2346.192139,2483.769287 2344.164551,2479.030029 2342.116455,2474.496582 
	C2336.770508,2462.664307 2331.405518,2450.823486 2325.509521,2439.260742 
	C2314.287354,2417.252197 2304.797119,2394.592529 2297.965332,2370.826904 
	C2291.790527,2349.346680 2287.643066,2327.371826 2286.397461,2305.189697 
	C2284.926514,2278.988770 2285.334961,2252.725342 2289.799072,2226.580811 
	C2297.729004,2180.140869 2314.202393,2137.477295 2343.089111,2100.004150 
	C2347.771973,2093.929443 2350.090332,2087.829102 2350.072021,2079.978760 
	C2349.844727,1981.652832 2349.920654,1883.326294 2349.919189,1783.000000 
z"/>
<path fill="#2A2828" opacity="1.000000" stroke="none" 
	d="
M2349.918945,1784.000000 
	C2349.920654,1883.326294 2349.844727,1981.652832 2350.072021,2079.978760 
	C2350.090332,2087.829102 2347.771973,2093.929443 2343.089111,2100.004150 
	C2314.202393,2137.477295 2297.729004,2180.140869 2289.799072,2226.580811 
	C2285.334961,2252.725342 2284.926514,2278.988770 2286.397461,2305.189697 
	C2287.643066,2327.371826 2291.790527,2349.346680 2297.965332,2370.826904 
	C2304.797119,2394.592529 2314.287354,2417.252197 2325.509521,2439.260742 
	C2331.405518,2450.823486 2336.770508,2462.664307 2342.116455,2474.496582 
	C2344.164551,2479.030029 2346.192139,2483.769287 2347.025391,2488.621338 
	C2350.605469,2509.471436 2347.132080,2521.050781 2324.792725,2527.190430 
	C2314.949463,2529.895996 2304.567627,2531.559570 2294.368408,2531.914062 
	C2166.465088,2536.359863 2038.514526,2533.573730 1910.586548,2533.760254 
	C1583.277344,2534.237305 1255.966675,2534.081787 928.657288,2533.646484 
	C898.876282,2533.606934 868.873779,2531.932129 839.675537,2524.331787 
	C809.262268,2516.414795 781.732544,2502.960693 757.519287,2482.747314 
	C735.155518,2464.077881 715.327454,2443.240479 699.153442,2418.864014 
	C681.375183,2392.069092 670.367798,2362.675537 664.145935,2331.384033 
	C659.598877,2308.516113 657.873169,2285.353271 657.875977,2262.011719 
	C657.934326,1781.046021 657.946045,1300.080444 657.840576,819.114746 
	C657.835266,794.845032 655.411316,770.523987 656.384277,746.318176 
	C657.795410,711.212585 658.405396,675.881958 667.649475,641.547241 
	C679.707275,596.761536 700.328308,556.849670 732.031982,522.480530 
	C753.552124,499.151154 778.032349,480.163391 806.229004,466.132721 
	C830.477356,454.066803 855.994263,445.472473 883.387451,443.839874 
	C893.991089,443.207947 904.596069,442.594574 915.196228,441.907898 
	C923.804016,441.350281 932.446777,439.817322 941.003235,440.220459 
	C1024.918335,444.174408 1108.878540,441.763977 1192.806641,441.886444 
	C1520.115967,442.363953 1847.426392,442.083862 2174.736328,442.074341 
	C2193.734375,442.073792 2212.736328,442.187958 2231.729248,441.848724 
	C2245.339844,441.605621 2258.938965,440.208801 2272.541992,440.226715 
	C2284.477783,440.242401 2296.556885,440.581787 2308.317139,442.416443 
	C2333.422363,446.333130 2343.304932,458.777496 2347.700195,482.334320 
	C2349.453613,491.733124 2349.834473,501.498810 2349.836914,511.097687 
	C2349.934570,935.065125 2349.919922,1359.032593 2349.918945,1784.000000 
M2260.328125,881.000000 
	C2260.281982,764.848755 2260.235596,648.697510 2260.189209,532.528809 
	C1833.552856,532.528809 1408.412354,532.528809 982.918884,532.528809 
	C982.918884,1032.308472 982.918884,1531.408325 982.918884,2031.579468 
	C987.830261,2031.579468 992.081055,2031.578125 996.331909,2031.579834 
	C1347.651245,2031.717285 1698.970703,2031.875000 2050.290039,2031.974976 
	C2116.287109,2031.993652 2182.284180,2031.790161 2248.281250,2031.659302 
	C2252.113281,2031.651733 2255.944824,2031.374268 2260.328613,2031.200562 
	C2260.328613,1647.571167 2260.328613,1265.285645 2260.328125,881.000000 
M2093.000000,2326.166260 
	C1740.050415,2326.166260 1387.100830,2326.177002 1034.151245,2326.146729 
	C1004.167847,2326.144287 974.176147,2326.231934 944.204834,2325.552002 
	C931.198975,2325.256592 919.684814,2320.243408 911.649414,2309.209961 
	C894.908752,2286.223389 904.369751,2246.375488 938.262512,2240.058838 
	C944.447021,2238.906250 950.814331,2238.182129 957.093567,2238.207031 
	C969.414612,2238.255371 981.732971,2239.352051 994.052551,2239.354248 
	C1388.330322,2239.421387 1782.608154,2239.409180 2176.885986,2239.409180 
	C2184.190186,2239.409180 2191.494385,2239.409180 2199.739746,2239.409180 
	C2207.103760,2198.463135 2213.596436,2157.635742 2233.260742,2118.758545 
	C2227.029785,2118.758545 2222.807861,2118.758545 2218.585938,2118.758545 
	C1785.646851,2118.758545 1352.707764,2118.823975 919.768738,2118.607666 
	C891.843750,2118.593750 865.562378,2124.466553 840.702576,2136.378662 
	C789.078979,2161.115234 759.562195,2203.159180 750.540955,2258.822754 
	C746.607666,2283.092285 748.732117,2308.003662 756.045959,2332.051025 
	C777.494141,2402.571289 829.758484,2438.083008 891.081909,2445.603760 
	C914.784607,2448.510498 938.985718,2447.944580 962.959717,2447.943359 
	C1051.945312,2447.938721 1140.930908,2447.303955 1229.916504,2447.278320 
	C1554.870728,2447.184814 1879.825073,2447.241943 2204.779297,2447.238281 
	C2211.444824,2447.238281 2218.111816,2447.251953 2224.775391,2447.130615 
	C2227.008301,2447.089844 2229.233643,2446.649658 2232.764160,2446.241699 
	C2217.389648,2406.988281 2207.154297,2367.116211 2199.651855,2326.166504 
	C2164.267578,2326.166504 2129.633789,2326.166504 2093.000000,2326.166260 
M744.374207,1379.000000 
	C744.375427,1409.997925 744.402222,1440.995972 744.373779,1471.993896 
	C744.191833,1670.312866 743.994690,1868.631958 743.821228,2066.950928 
	C743.815674,2073.282227 743.860168,2079.621338 744.199951,2085.939941 
	C744.311584,2088.016357 745.431763,2090.038086 746.569153,2093.570557 
	C792.168274,2059.746338 840.141052,2034.137817 897.791382,2031.183960 
	C897.791382,2025.328857 897.791626,2020.709229 897.791443,2016.089478 
	C897.771545,1537.453125 897.739258,1058.816650 897.809875,580.180237 
	C897.811523,569.223328 898.985962,558.267029 899.591919,547.309265 
	C899.702271,545.314819 899.850525,543.306763 899.738342,541.318665 
	C899.266785,532.965088 897.614258,531.728394 889.158447,533.155579 
	C887.189392,533.487976 885.197510,533.690125 883.234924,534.053650 
	C857.642029,538.794617 833.922974,547.986023 813.098206,563.897522 
	C790.711426,581.002441 776.073792,603.746765 765.803772,629.579102 
	C753.099731,661.533630 748.148743,695.156555 746.400024,729.127869 
	C744.705566,762.044983 744.450928,795.061279 744.422058,828.034790 
	C744.261902,1011.023071 744.363281,1194.011597 744.374207,1379.000000 
z"/>
<path fill="#F8633F" opacity="1.000000" stroke="none" 
	d="
M2260.328369,882.000000 
	C2260.328613,1265.285645 2260.328613,1647.571167 2260.328613,2031.200562 
	C2255.944824,2031.374268 2252.113281,2031.651733 2248.281250,2031.659302 
	C2182.284180,2031.790161 2116.287109,2031.993652 2050.290039,2031.974976 
	C1698.970703,2031.875000 1347.651245,2031.717285 996.331909,2031.579834 
	C992.081055,2031.578125 987.830261,2031.579468 982.918884,2031.579468 
	C982.918884,1531.408325 982.918884,1032.308472 982.918884,532.528809 
	C1408.412354,532.528809 1833.552856,532.528809 2260.189209,532.528809 
	C2260.235596,648.697510 2260.281982,764.848755 2260.328369,882.000000 
M2125.035645,747.703247 
	C2111.049072,747.311035 2097.061768,746.548157 2083.076416,746.588257 
	C2005.770020,746.809937 1928.464355,747.480408 1851.158325,747.529480 
	C1633.553955,747.667664 1415.949463,747.558838 1198.345093,747.648193 
	C1189.720215,747.651733 1181.011597,748.110046 1172.488403,749.357361 
	C1152.937500,752.218689 1137.638794,763.011047 1136.067749,791.989319 
	C1135.653076,799.635925 1135.657471,807.311523 1135.661499,814.973694 
	C1135.691895,873.956482 1135.781128,932.939331 1135.824951,991.922119 
	C1135.835815,1006.580017 1135.237915,1021.261597 1135.914795,1035.886230 
	C1136.262939,1043.408936 1137.912231,1051.160278 1140.534180,1058.229492 
	C1146.164917,1073.410522 1156.589355,1083.282104 1173.759033,1084.151245 
	C1199.355225,1085.447144 1224.945557,1087.888306 1250.541870,1087.935181 
	C1304.179321,1088.033325 1357.818237,1086.460205 1411.458252,1086.339966 
	C1533.755981,1086.065796 1656.054932,1086.099243 1778.352905,1086.297974 
	C1893.307983,1086.484741 2008.262573,1087.051880 2123.217285,1087.427368 
	C2133.945068,1087.462402 2144.590820,1086.625122 2154.406494,1081.791504 
	C2167.096436,1075.542480 2174.814697,1065.833374 2174.164551,1051.044067 
	C2173.902832,1045.091431 2173.405029,1039.061646 2172.140869,1033.257202 
	C2168.553955,1016.781799 2160.843750,1001.955017 2152.320801,987.623108 
	C2142.105957,970.446228 2131.048828,953.768860 2120.894531,936.557800 
	C2110.072510,918.215027 2111.155273,923.249817 2120.403076,906.311829 
	C2129.660645,889.355591 2139.498291,872.712158 2148.571777,855.660461 
	C2157.970459,837.997253 2166.292725,819.801086 2170.891357,800.194275 
	C2173.018799,791.123474 2174.740479,781.996033 2172.634521,772.531555 
	C2169.419678,758.083679 2160.572266,749.715881 2145.971436,748.417480 
	C2139.674805,747.857605 2133.321533,747.939026 2125.035645,747.703247 
z"/>
<path fill="#BEDDC8" opacity="1.000000" stroke="none" 
	d="
M2094.000000,2326.166504 
	C2129.633789,2326.166504 2164.267578,2326.166504 2199.651855,2326.166504 
	C2207.154297,2367.116211 2217.389648,2406.988281 2232.764160,2446.241699 
	C2229.233643,2446.649658 2227.008301,2447.089844 2224.775391,2447.130615 
	C2218.111816,2447.251953 2211.444824,2447.238281 2204.779297,2447.238281 
	C1879.825073,2447.241943 1554.870728,2447.184814 1229.916504,2447.278320 
	C1140.930908,2447.303955 1051.945312,2447.938721 962.959717,2447.943359 
	C938.985718,2447.944580 914.784607,2448.510498 891.081909,2445.603760 
	C829.758484,2438.083008 777.494141,2402.571289 756.045959,2332.051025 
	C748.732117,2308.003662 746.607666,2283.092285 750.540955,2258.822754 
	C759.562195,2203.159180 789.078979,2161.115234 840.702576,2136.378662 
	C865.562378,2124.466553 891.843750,2118.593750 919.768738,2118.607666 
	C1352.707764,2118.823975 1785.646851,2118.758545 2218.585938,2118.758545 
	C2222.807861,2118.758545 2227.029785,2118.758545 2233.260742,2118.758545 
	C2213.596436,2157.635742 2207.103760,2198.463135 2199.739746,2239.409180 
	C2191.494385,2239.409180 2184.190186,2239.409180 2176.885986,2239.409180 
	C1782.608154,2239.409180 1388.330322,2239.421387 994.052551,2239.354248 
	C981.732971,2239.352051 969.414612,2238.255371 957.093567,2238.207031 
	C950.814331,2238.182129 944.447021,2238.906250 938.262512,2240.058838 
	C904.369751,2246.375488 894.908752,2286.223389 911.649414,2309.209961 
	C919.684814,2320.243408 931.198975,2325.256592 944.204834,2325.552002 
	C974.176147,2326.231934 1004.167847,2326.144287 1034.151245,2326.146729 
	C1387.100830,2326.177002 1740.050415,2326.166260 2094.000000,2326.166504 
z"/>
<path fill="#B02418" opacity="1.000000" stroke="none" 
	d="
M744.374634,1378.000000 
	C744.363281,1194.011597 744.261902,1011.023071 744.422058,828.034790 
	C744.450928,795.061279 744.705566,762.044983 746.400024,729.127869 
	C748.148743,695.156555 753.099731,661.533630 765.803772,629.579102 
	C776.073792,603.746765 790.711426,581.002441 813.098206,563.897522 
	C833.922974,547.986023 857.642029,538.794617 883.234924,534.053650 
	C885.197510,533.690125 887.189392,533.487976 889.158447,533.155579 
	C897.614258,531.728394 899.266785,532.965088 899.738342,541.318665 
	C899.850525,543.306763 899.702271,545.314819 899.591919,547.309265 
	C898.985962,558.267029 897.811523,569.223328 897.809875,580.180237 
	C897.739258,1058.816650 897.771545,1537.453125 897.791443,2016.089478 
	C897.791626,2020.709229 897.791382,2025.328857 897.791382,2031.183960 
	C840.141052,2034.137817 792.168274,2059.746338 746.569153,2093.570557 
	C745.431763,2090.038086 744.311584,2088.016357 744.199951,2085.939941 
	C743.860168,2079.621338 743.815674,2073.282227 743.821228,2066.950928 
	C743.994690,1868.631958 744.191833,1670.312866 744.373779,1471.993896 
	C744.402222,1440.995972 744.375427,1409.997925 744.374634,1378.000000 
z"/>
<path fill="#2A2828" opacity="1.000000" stroke="none" 
	d="
M2126.014648,747.716187 
	C2133.321533,747.939026 2139.674805,747.857605 2145.971436,748.417480 
	C2160.572266,749.715881 2169.419678,758.083679 2172.634521,772.531555 
	C2174.740479,781.996033 2173.018799,791.123474 2170.891357,800.194275 
	C2166.292725,819.801086 2157.970459,837.997253 2148.571777,855.660461 
	C2139.498291,872.712158 2129.660645,889.355591 2120.403076,906.311829 
	C2111.155273,923.249817 2110.072510,918.215027 2120.894531,936.557800 
	C2131.048828,953.768860 2142.105957,970.446228 2152.320801,987.623108 
	C2160.843750,1001.955017 2168.553955,1016.781799 2172.140869,1033.257202 
	C2173.405029,1039.061646 2173.902832,1045.091431 2174.164551,1051.044067 
	C2174.814697,1065.833374 2167.096436,1075.542480 2154.406494,1081.791504 
	C2144.590820,1086.625122 2133.945068,1087.462402 2123.217285,1087.427368 
	C2008.262573,1087.051880 1893.307983,1086.484741 1778.352905,1086.297974 
	C1656.054932,1086.099243 1533.755981,1086.065796 1411.458252,1086.339966 
	C1357.818237,1086.460205 1304.179321,1088.033325 1250.541870,1087.935181 
	C1224.945557,1087.888306 1199.355225,1085.447144 1173.759033,1084.151245 
	C1156.589355,1083.282104 1146.164917,1073.410522 1140.534180,1058.229492 
	C1137.912231,1051.160278 1136.262939,1043.408936 1135.914795,1035.886230 
	C1135.237915,1021.261597 1135.835815,1006.580017 1135.824951,991.922119 
	C1135.781128,932.939331 1135.691895,873.956482 1135.661499,814.973694 
	C1135.657471,807.311523 1135.653076,799.635925 1136.067749,791.989319 
	C1137.638794,763.011047 1152.937500,752.218689 1172.488403,749.357361 
	C1181.011597,748.110046 1189.720215,747.651733 1198.345093,747.648193 
	C1415.949463,747.558838 1633.553955,747.667664 1851.158325,747.529480 
	C1928.464355,747.480408 2005.770020,746.809937 2083.076416,746.588257 
	C2097.061768,746.548157 2111.049072,747.311035 2126.014648,747.716187 
M2054.116455,836.075256 
	C1777.029541,836.075256 1499.942627,836.075256 1221.930420,836.075256 
	C1222.344727,890.781616 1219.424561,944.495300 1222.354004,997.915771 
	C1501.440308,997.915771 1779.411377,997.915771 2058.577637,997.915771 
	C2054.451660,990.970398 2050.888672,985.058533 2047.408936,979.097900 
	C2039.077271,964.826477 2030.522095,950.645447 2025.439331,934.782471 
	C2022.481567,925.551270 2020.232544,915.930542 2023.612183,906.528687 
	C2026.846802,897.529846 2031.148071,888.867554 2035.526733,880.337708 
	C2042.354736,867.036438 2049.644287,853.971924 2057.795898,839.880188 
	C2058.259033,838.140808 2059.424561,836.046570 2054.116455,836.075256 
z"/>
<path fill="#FEFEFE" opacity="1.000000" stroke="none" 
	d="
M2056.738037,840.807129 
	C2049.644287,853.971924 2042.354736,867.036438 2035.526733,880.337708 
	C2031.148071,888.867554 2026.846802,897.529846 2023.612183,906.528687 
	C2020.232544,915.930542 2022.481567,925.551270 2025.439331,934.782471 
	C2030.522095,950.645447 2039.077271,964.826477 2047.408936,979.097900 
	C2050.888672,985.058533 2054.451660,990.970398 2058.577637,997.915771 
	C1779.411377,997.915771 1501.440308,997.915771 1222.354004,997.915771 
	C1219.424561,944.495300 1222.344727,890.781616 1221.930420,836.075256 
	C1499.942627,836.075256 1777.029541,836.075256 2055.118652,836.942139 
	C2056.326660,838.808350 2056.532471,839.807678 2056.738037,840.807129 
z"/>
<path fill="#BEDDC8" opacity="1.000000" stroke="none" 
	d="
M2057.267090,840.343628 
	C2056.532471,839.807678 2056.326660,838.808350 2056.049805,837.045410 
	C2059.424561,836.046570 2058.259033,838.140808 2057.267090,840.343628 
z"/>
</svg>