<svg version="1.2" xmlns="http://www.w3.org/2000/svg" viewBox="0 0 520 520" width="520" height="520">
	<title>Novo Projeto</title>
	<defs>
		<clipPath clipPathUnits="userSpaceOnUse" id="cp1">
			<path d="m0 0h520v520h-520z"/>
		</clipPath>
	</defs>
	<style>
		.s0 { fill: #ffffff } 
	</style>
	<g id="Prancheta 1" clip-path="url(#cp1)">
		<path class="s0" d="m262.9 437.5l22.9-317.1q0.1-1.4 0.4-2.8 0.2-1.3 0.5-2.7 0.4-1.3 0.8-2.6 0.5-1.3 1-2.6l5.3-11.8c-22 6.7-52.3 7.7-85 7l25.4 12.9c5.3 2.6 8.8 2.6 9.2 8.5z"/>
		<path class="s0" d="m286 48.3c0 11.4-6.9 21.7-17.4 26.1-10.6 4.3-22.7 1.9-30.8-6.1-8-8.1-10.5-20.2-6.1-30.7 4.4-10.6 14.7-17.4 26.1-17.4 3.7 0 7.4 0.7 10.8 2.1 3.4 1.4 6.5 3.5 9.1 6.1 2.6 2.6 4.7 5.7 6.1 9.2 1.5 3.4 2.2 7 2.2 10.7z"/>
		<path class="s0" d="m259.7 144c-102.2 0-185.1 80.2-185.1 179 0 89.5 68.1 163.7 156.8 176.8-58-15.1-101.4-75.2-101.4-147 0-83.3 58.2-150.8 130-150.8 71.7 0 129.9 67.5 129.9 150.8 0 71.4-42.9 131.3-100.5 146.8 88.1-13.8 155.3-87.6 155.3-176.6 0-98.8-82.8-179-185-179z"/>
		<path class="s0" d="m259.7 233.6c-58 0-105 45.9-105 102.5 0 45.3 30.1 83.8 71.9 97.3-23.5-12.8-39.7-38.5-39.7-68.3 0-42.4 32.6-76.7 72.8-76.7 40.2 0 72.8 34.3 72.8 76.7 0 29.8-16.2 55.6-39.8 68.3 41.8-13.5 72-52 72-97.3 0-56.6-47-102.5-105-102.5z"/>
	</g>
</svg>